# xmcd
#
# Track frame offsets:
#	187
#	13630
#	27112
#	42067
#	57685
#	70900
#	85617
#	99375
#	115670
#	128087
#
# Disc length: 1888 seconds
#
# Revision: 1
# Processed by: cddbd v1.5PL3 Copyright (c) Steve Scherf et al.
# Submitted via: audiograbber 1.82.02
#
DISCID=76075e0a
DTITLE=Ronnie McDowell - All Tied Up In Love
DYEAR=1986
DGENRE=Country
TTITLE0=All Tied Up
TTITLE1=Baby Me Baby
TTITLE2=I Love The Way You Say Goodnight
TTITLE3=Let Me Teach You How To Slow Dance
TTITLE4=Sugar Baby Pop
TTITLE5=When You Hurt, I Hurt
TTITLE6=My Heart Belongs To Shirley
TTITLE7=When God Made You
TTITLE8=Lovin' That Crazy Feelin'
TTITLE9=Whooplah
EXTD=
EXTT0=
EXTT1=
EXTT2=
EXTT3=
EXTT4=
EXTT5=
EXTT6=
EXTT7=
EXTT8=
EXTT9=
PLAYORDER=
